<svg xmlns="http://www.w3.org/2000/svg" viewBox="0 0 64 64" role="img" aria-label="Brisbane Roofing Services">
  <!-- Simplified shield mark matching brand system -->
  <path d="M32 4 L56 12 V32 C56 46 44 56 32 60 C20 56 8 46 8 32 V12 Z" fill="#1a2b4a" stroke="#c45c26" stroke-width="2.5"/>
  <path d="M18 34 L32 20 L46 34" fill="none" stroke="#c8d0d8" stroke-width="3.5" stroke-linecap="round" stroke-linejoin="round"/>
  <path d="M22 34 L32 24 L42 34" fill="none" stroke="#e8eef5" stroke-width="2" stroke-linecap="round" stroke-linejoin="round"/>
  <circle cx="32" cy="18" r="5" fill="#e8a317" opacity="0.95"/>
  <path d="M32 10 L34 16 L32 14 L30 16 Z" fill="#e8a317"/>
  <g stroke="#e8a317" stroke-width="1.2" stroke-linecap="round">
    <path d="M32 8 V6"/><path d="M38 12 L40 10"/><path d="M26 12 L24 10"/>
    <path d="M40 18 L42 18"/><path d="M22 18 L20 18"/>
  </g>
</svg>

